<?xml version="1.0" encoding="UTF-8" standalone="no"?>
<svg
   data-v-2cb57da0=""
   version="1.0"
   width="327.04999"
   height="62"
   viewBox="0 0 327.04999 62"
   preserveAspectRatio="xMidYMid meet"
   color-interpolation-filters="sRGB"
   id="svg59"
   sodipodi:docname="permalgorithme.svg"
   inkscape:version="1.1.2 (0a00cf5339, 2022-02-04)"
   xmlns:inkscape="http://www.inkscape.org/namespaces/inkscape"
   xmlns:sodipodi="http://sodipodi.sourceforge.net/DTD/sodipodi-0.dtd"
   xmlns="http://www.w3.org/2000/svg"
   xmlns:svg="http://www.w3.org/2000/svg">
  <sodipodi:namedview
     id="namedview61"
     pagecolor="#505050"
     bordercolor="#ffffff"
     borderopacity="1"
     inkscape:pageshadow="0"
     inkscape:pageopacity="0"
     inkscape:pagecheckerboard="1"
     showgrid="false"
     fit-margin-top="0"
     fit-margin-left="0"
     fit-margin-right="0"
     fit-margin-bottom="0"
     inkscape:zoom="3.3588235"
     inkscape:cx="163.45009"
     inkscape:cy="29.921191"
     inkscape:window-width="2515"
     inkscape:window-height="1379"
     inkscape:window-x="45"
     inkscape:window-y="30"
     inkscape:window-maximized="1"
     inkscape:current-layer="g55" />
  <g
     data-v-2cb57da0=""
     fill="#18212a"
     class="icon-text-wrapper icon-svg-group iconsvg"
     id="g55">
    <g
       class="iconsvg-imagesvg"
       id="g31">
      <g
         id="g29">
        <rect
           fill="#18212a"
           fill-opacity="0"
           stroke-width="2"
           x="0"
           y="0"
           width="60"
           height="60"
           class="image-rect"
           id="rect6" />
        <svg
           filter="url(#colors382614728)"
           x="0"
           y="0"
           width="60"
           height="60"
           filtersec="colorsf5642788776"
           class="image-svg-svg primary"
           style="overflow:visible"
           version="1.1"
           id="svg16">
          <svg
             viewBox="2 2 60 60"
             x="0px"
             y="0px"
             version="1.1"
             id="svg14"
             width="100%"
             height="100%">
            <path
               d="m 19,44 a 2.993,2.993 0 0 0 1,-5.816 V 33 h 2.788 L 31,36.65 v 5.534 a 3,3 0 1 0 2,0 V 36.65 L 41.212,33 H 44 v 5.184 a 3,3 0 1 0 2,0 V 32 A 1,1 0 0 0 45,31 H 41.212 L 33,27.35 V 22 h 4 a 1,1 0 0 0 1,-1 V 17 A 1,1 0 0 0 37,16 H 27 a 1,1 0 0 0 -1,1 v 4 a 1,1 0 0 0 1,1 h 4 v 5.35 L 22.788,31 H 19 a 1,1 0 0 0 -1,1 v 6.184 A 2.993,2.993 0 0 0 19,44 Z m 26,-2 a 1,1 0 1 1 1,-1 1,1 0 0 1 -1,1 z M 28,18 h 8 v 2 h -8 z m 4,28 a 1,1 0 1 1 1,-1 1,1 0 0 1 -1,1 z M 32,29.094 38.538,32 32,34.906 25.462,32 Z M 19,40 a 1,1 0 1 1 -1,1 1,1 0 0 1 1,-1 z"
               id="path8" />
            <path
               d="m 13,12 a 1,1 0 0 0 -1,1 v 38 a 1,1 0 0 0 1,1 h 38 a 1,1 0 0 0 1,-1 V 13 A 1,1 0 0 0 51,12 Z M 50,50 H 14 V 14 h 36 z"
               id="path10" />
            <path
               d="m 62,17 v -2 h -5 v -3 a 1,1 0 0 0 -0.293,-0.707 l -4,-4 A 1,1 0 0 0 52,7 H 49 V 2 H 47 V 7 H 44 V 2 H 42 V 7 H 39 V 2 H 37 V 7 H 34 V 2 H 32 V 7 H 29 V 2 H 27 V 7 H 24 V 2 H 22 V 7 H 19 V 2 H 17 V 7 H 14 V 2 H 12 V 7 H 8 A 1,1 0 0 0 7,8 v 6 H 2 v 2 h 5 v 3 H 2 v 2 h 5 v 3 H 2 v 2 h 5 v 3 H 2 v 2 h 5 v 3 H 2 v 2 h 5 v 3 H 2 v 2 h 5 v 3 H 2 v 2 h 5 v 3 H 2 v 2 h 5 v 5 a 1,1 0 0 0 1,1 h 5 v 5 h 2 v -5 h 3 v 5 h 2 v -5 h 3 v 5 h 2 v -5 h 3 v 5 h 2 v -5 h 3 v 5 h 2 v -5 h 3 v 5 h 2 v -5 h 3 v 5 h 2 v -5 h 3 v 5 h 2 v -5 h 6 a 1,1 0 0 0 1,-1 v -4 h 5 v -2 h -5 v -3 h 5 v -2 h -5 v -3 h 5 v -2 h -5 v -3 h 5 v -2 h -5 v -3 h 5 v -2 h -5 v -3 h 5 v -2 h -5 v -3 h 5 V 20 H 57 V 17 Z M 55,55 H 9 V 9 H 51.586 L 55,12.414 Z"
               id="path12" />
          </svg>
        </svg>
        <defs
           id="defs27">
          <filter
             id="colors382614728"
             x="0"
             y="0"
             width="1"
             height="1">
            <feColorMatrix
               type="matrix"
               values="0 0 0 0 0.09375  0 0 0 0 0.12890625  0 0 0 0 0.1640625  0 0 0 1 0"
               class="icon-fecolormatrix"
               id="feColorMatrix18" />
          </filter>
          <filter
             id="colorsf5642788776">
            <feColorMatrix
               type="matrix"
               values="0 0 0 0 0.99609375  0 0 0 0 0.99609375  0 0 0 0 0.99609375  0 0 0 1 0"
               class="icon-fecolormatrix"
               id="feColorMatrix21" />
          </filter>
          <filter
             id="colorsb7222916043">
            <feColorMatrix
               type="matrix"
               values="0 0 0 0 0  0 0 0 0 0  0 0 0 0 0  0 0 0 1 0"
               class="icon-fecolormatrix"
               id="feColorMatrix24" />
          </filter>
        </defs>
      </g>
    </g>
    <g
       transform="translate(67,12.677)"
       id="g53">
      <g
         data-gra="path-name"
         fill-rule=""
         class="tp-name iconsvg-namesvg"
         id="g39">
        <g
           id="g37">
          <g
             id="g35">
            <path
               d="m 9.79,-6.74 c 5.12,0 7.23,-3.14 7.23,-6.78 0,-3.58 -1.82,-6.4 -7.23,-6.4 H 1.94 v 3.36 h 7.2 c 2.73,0 3.84,1.08 3.84,3.16 0,2.07 -1.34,3.3 -3.82,3.3 H 1.94 V 0 H 5.78 V -6.74 Z M 37.54,0 h 3.84 v -7.03 h 4.47 L 49.57,0 h 4.33 l -4.64,-7.68 c 2.42,-1.2 3.5,-3.82 3.5,-5.95 0,-4.01 -2.5,-6.29 -7,-6.29 H 19.15 v 3.47 h 26.18 c 2.57,0 3.82,0.94 3.82,2.9 0,2.11 -1.48,3.33 -3.79,3.33 h -7.82 z m -3.65,-8.2 v -3.52 H 19.15 V -8.2 Z M 19.15,0 H 33.89 V -3.76 H 19.15 Z M 65.2,-2.59 h 2.65 l 5.72,-10.16 h 0.14 V 0 h 3.84 v -19.92 h -3.9 L 66.76,-7.2 H 66.65 L 59.82,-19.92 H 55.98 Z M 55.98,0 h 3.73 v -7.83 l -3.73,-7 z M 91.64,-19.92 H 86.77 L 79.63,0 h 4.15 l 5.3,-15.79 h 0.28 L 95.02,0 h 4.44 z m 23.47,9.96 c 0,-3.87 2.68,-6.86 6.66,-6.86 3.05,0 5.01,1.42 5.75,3.7 h 4.07 c -0.97,-4.98 -4.41,-7.09 -9.84,-7.09 -6.35,0 -10.36,3.99 -10.36,10.25 z m -9.7,4.01 v -13.97 h -3.87 V -5.95 Z M 101.54,0 h 19.92 l 6.6,-4.75 V 0 h 3.59 c 0,-0.14 0,-10.47 0,-10.62 h -10.59 v 2.79 h 5.75 l -5.66,4.07 h -19.61 z m 42.92,-20.21 v 3.65 c 3.75,0 6.6,2.16 6.6,6.6 0,4.44 -2.85,6.63 -6.6,6.63 -3.65,0 -6.46,-2.19 -6.46,-6.63 0,0 -3.88,0 -3.88,0 0,6.57 4.59,10.24 10.34,10.24 5.89,0 10.44,-3.38 10.44,-10.24 0,-6.55 -4.55,-10.25 -10.44,-10.25 z M 157.89,0 h 3.84 v -7.03 h 4.47 L 169.93,0 h 4.32 l -4.64,-7.68 c 2.42,-1.2 3.5,-3.82 3.5,-5.95 0,-4.01 -2.5,-6.29 -7,-6.29 h -8.22 v 3.36 h 7.8 c 2.56,0 3.81,1.05 3.81,3.01 0,2.11 -1.48,3.33 -3.79,3.33 h -7.82 z m 22.31,-16.85 v -3.07 h -3.87 v 3.07 z M 176.33,0 h 3.84 v -14.23 h -3.84 z m 6,-19.92 v 3.73 h 15.83 v -3.73 z m 6.01,6.26 V 0 h 3.84 v -13.66 z m 17.56,5.07 h 8.45 V 0 h 3.84 v -19.92 h -3.84 v 7.68 H 205.9 Z M 200.29,0 h 3.84 v -19.92 h -3.84 z m 30.99,-2.59 h 2.65 l 5.72,-10.16 h 0.14 V 0 h 3.84 v -19.92 h -3.9 l -6.88,12.72 h -0.12 l -6.83,-12.72 h -3.84 z M 222.06,0 h 3.73 v -7.83 l -3.73,-7 z m 39.93,-16.19 v -3.73 h -14.74 v 3.73 z m 0,7.99 v -3.52 H 247.25 V -8.2 Z M 247.25,0 h 14.74 v -3.76 h -14.74 z"
               transform="translate(-1.9400001,20.209999)"
               id="path33" />
          </g>
          <!---->
          <!---->
          <!---->
          <!---->
          <!---->
          <!---->
          <!---->
        </g>
      </g>
      <g
         data-gra="path-slogan"
         fill-rule=""
         class="tp-slogan iconsvg-slogansvg"
         fill="#18212a"
         transform="translate(5,25.49)"
         id="g51">
        <rect
           x="0"
           height="1"
           y="3.5800004"
           width="8.9399948"
           id="rect41" />
        <rect
           height="1"
           y="3.5800004"
           width="8.9399948"
           x="241.10999"
           id="rect43" />
        <g
           transform="translate(11.939995)"
           id="g49">
          <g
             id="g47">
            <path
               d="m 2.08,-7.07 v 2.93 H 3.4 q 0.92,0 1.41,-0.38 Q 5.3,-4.9 5.3,-5.66 v 0 Q 5.3,-6.44 4.81,-6.76 4.32,-7.07 3.4,-7.07 v 0 z M 6.53,0 H 5.4 L 3.5,-3.32 H 2.08 V 0 h -1 v -7.87 h 2.46 q 0.6,0 1.11,0.11 0.51,0.12 0.88,0.38 0.36,0.26 0.57,0.68 0.2,0.42 0.2,1.04 v 0 q 0,0.92 -0.48,1.47 -0.48,0.55 -1.28,0.76 v 0 z m 3.52,0 v -7.87 h 4.54 v 0.84 h -3.54 v 2.47 h 2.99 v 0.85 h -2.99 v 2.86 h 3.66 V 0 Z m 7.75,-1.02 0.6,-0.7 q 0.42,0.45 0.99,0.72 0.57,0.27 1.18,0.27 v 0 q 0.78,0 1.21,-0.36 0.44,-0.35 0.44,-0.93 v 0 q 0,-0.3 -0.11,-0.51 -0.1,-0.21 -0.27,-0.36 -0.18,-0.15 -0.42,-0.27 -0.24,-0.12 -0.51,-0.25 v 0 L 19.78,-3.9 Q 19.5,-4.02 19.22,-4.19 18.93,-4.36 18.7,-4.6 18.47,-4.84 18.33,-5.17 18.18,-5.5 18.18,-5.93 v 0 q 0,-0.44 0.19,-0.83 0.19,-0.38 0.52,-0.66 0.33,-0.28 0.78,-0.44 0.45,-0.16 0.99,-0.16 v 0 q 0.7,0 1.3,0.27 0.6,0.27 1.02,0.71 v 0 l -0.54,0.64 q -0.36,-0.34 -0.79,-0.54 -0.44,-0.2 -0.99,-0.2 v 0 q -0.66,0 -1.07,0.31 -0.4,0.3 -0.4,0.84 v 0 q 0,0.29 0.12,0.49 0.11,0.2 0.3,0.35 0.19,0.15 0.42,0.26 0.23,0.11 0.47,0.21 v 0 l 1.12,0.48 q 0.33,0.14 0.63,0.33 0.3,0.19 0.52,0.43 0.21,0.25 0.34,0.58 0.13,0.33 0.13,0.76 v 0 q 0,0.47 -0.19,0.88 -0.19,0.4 -0.53,0.71 -0.35,0.31 -0.84,0.48 -0.5,0.17 -1.12,0.17 v 0 q -0.83,0 -1.54,-0.31 -0.7,-0.31 -1.22,-0.85 z M 26.78,0 v -7.87 h 1 V 0 Z m 5.16,0 v -7.87 h 1 v 7.02 h 3.44 V 0 Z m 7.83,0 v -7.87 h 1 V 0 Z m 5.16,0 v -7.87 h 4.53 v 0.84 h -3.54 v 2.47 h 2.99 v 0.85 h -2.99 v 2.86 h 3.66 V 0 Z m 8.32,0 v -7.87 h 1.03 l 2.85,4.94 0.85,1.63 h 0.05 Q 57.99,-1.9 57.95,-2.54 57.91,-3.18 57.91,-3.8 v 0 -4.07 h 0.95 V 0 h -1.04 l -2.85,-4.96 -0.85,-1.62 h -0.05 q 0.05,0.6 0.09,1.22 0.04,0.62 0.04,1.24 v 0 V 0 Z m 11.4,0 v -7.03 h -2.38 v -0.84 h 5.76 v 0.84 H 65.66 V 0 Z m 11.22,0 v -7.87 h 1.97 q 1.82,0 2.77,1.01 0.95,1 0.95,2.89 v 0 q 0,0.93 -0.24,1.67 -0.24,0.74 -0.71,1.25 -0.47,0.51 -1.15,0.78 Q 78.78,0 77.89,0 v 0 z m 1,-0.82 h 0.9 q 1.38,0 2.07,-0.82 0.69,-0.83 0.69,-2.33 v 0 q 0,-1.5 -0.69,-2.29 -0.69,-0.8 -2.07,-0.8 v 0 h -0.9 z M 85.25,0 v -7.87 h 4.54 v 0.84 h -3.54 v 2.47 h 2.99 v 0.85 h -2.99 v 2.86 h 3.66 V 0 Z m 7.75,-1.02 0.6,-0.7 q 0.42,0.45 0.99,0.72 0.57,0.27 1.18,0.27 v 0 q 0.78,0 1.21,-0.36 0.44,-0.35 0.44,-0.93 v 0 q 0,-0.3 -0.11,-0.51 -0.1,-0.21 -0.27,-0.36 -0.18,-0.15 -0.42,-0.27 -0.24,-0.12 -0.51,-0.25 v 0 L 94.98,-3.9 Q 94.7,-4.02 94.42,-4.19 94.13,-4.36 93.9,-4.6 93.67,-4.84 93.53,-5.17 93.38,-5.5 93.38,-5.93 v 0 q 0,-0.44 0.19,-0.83 0.19,-0.38 0.52,-0.66 0.33,-0.28 0.78,-0.44 0.45,-0.16 0.99,-0.16 v 0 q 0.7,0 1.3,0.27 0.6,0.27 1.02,0.71 v 0 l -0.54,0.64 q -0.36,-0.34 -0.79,-0.54 -0.44,-0.2 -0.99,-0.2 v 0 q -0.66,0 -1.07,0.31 -0.4,0.3 -0.4,0.84 v 0 q 0,0.29 0.12,0.49 0.11,0.2 0.3,0.35 0.19,0.15 0.42,0.26 0.23,0.11 0.47,0.21 v 0 l 1.12,0.48 q 0.33,0.14 0.63,0.33 0.3,0.19 0.52,0.43 0.21,0.25 0.34,0.58 0.13,0.33 0.13,0.76 v 0 q 0,0.47 -0.19,0.88 -0.19,0.4 -0.53,0.71 -0.35,0.31 -0.84,0.48 -0.5,0.17 -1.12,0.17 v 0 q -0.83,0 -1.54,-0.31 Q 93.52,-0.48 93,-1.02 Z M 101.98,0 v -7.87 h 1 V 0 Z m 4.7,-3.94 v 0 q 0,-0.94 0.27,-1.7 0.27,-0.76 0.76,-1.28 0.49,-0.53 1.15,-0.81 0.66,-0.29 1.45,-0.29 v 0 q 0.81,0 1.36,0.31 0.55,0.31 0.89,0.67 v 0 L 112,-6.41 q -0.3,-0.31 -0.69,-0.52 -0.39,-0.21 -0.99,-0.21 v 0 q -0.6,0 -1.08,0.22 -0.48,0.22 -0.82,0.64 -0.33,0.41 -0.52,1 -0.18,0.59 -0.18,1.32 v 0 q 0,0.74 0.17,1.34 0.17,0.59 0.5,1.01 0.33,0.42 0.82,0.65 0.49,0.23 1.12,0.23 v 0 q 0.42,0 0.8,-0.13 0.38,-0.12 0.62,-0.34 v 0 -2.05 h -1.67 v -0.83 h 2.58 v 3.31 q -0.38,0.4 -1.01,0.66 -0.63,0.25 -1.43,0.25 v 0 q -0.78,0 -1.42,-0.27 -0.65,-0.28 -1.12,-0.8 -0.47,-0.52 -0.73,-1.28 -0.27,-0.77 -0.27,-1.73 z M 116.54,0 v -7.87 h 1.04 l 2.84,4.94 0.85,1.63 h 0.05 q -0.04,-0.6 -0.08,-1.24 -0.04,-0.64 -0.04,-1.26 v 0 -4.07 h 0.95 V 0 h -1.03 l -2.86,-4.96 -0.85,-1.62 h -0.05 q 0.05,0.6 0.09,1.22 0.04,0.62 0.04,1.24 v 0 V 0 Z m 14.19,0 v -7.87 h 4.54 v 0.84 h -3.54 v 2.66 h 3 v 0.84 h -3 V 0 Z m 10.71,0.14 v 0 q -0.74,0 -1.36,-0.28 -0.62,-0.29 -1.06,-0.83 -0.44,-0.53 -0.69,-1.29 -0.25,-0.76 -0.25,-1.71 v 0 q 0,-0.95 0.25,-1.7 0.25,-0.75 0.69,-1.27 0.44,-0.52 1.06,-0.8 0.62,-0.28 1.36,-0.28 v 0 q 0.75,0 1.37,0.29 0.61,0.28 1.06,0.8 0.45,0.52 0.7,1.27 0.25,0.75 0.25,1.69 v 0 q 0,0.95 -0.25,1.71 -0.25,0.76 -0.7,1.29 -0.45,0.54 -1.06,0.83 -0.62,0.28 -1.37,0.28 z m 0,-0.87 v 0 q 0.53,0 0.96,-0.23 0.42,-0.23 0.73,-0.65 0.31,-0.43 0.47,-1.02 0.17,-0.6 0.17,-1.34 v 0 q 0,-0.73 -0.17,-1.32 -0.16,-0.59 -0.47,-1 -0.31,-0.41 -0.73,-0.63 -0.43,-0.22 -0.96,-0.22 v 0 q -0.52,0 -0.95,0.22 -0.43,0.22 -0.73,0.63 -0.31,0.41 -0.48,1 -0.16,0.59 -0.16,1.32 v 0 q 0,0.74 0.16,1.34 0.17,0.59 0.48,1.02 0.3,0.42 0.73,0.65 0.43,0.23 0.95,0.23 z m 8.06,-6.34 v 2.93 h 1.32 q 0.93,0 1.42,-0.38 0.49,-0.38 0.49,-1.14 v 0 q 0,-0.78 -0.49,-1.1 -0.49,-0.31 -1.42,-0.31 v 0 z M 153.96,0 h -1.13 l -1.9,-3.32 H 149.5 V 0 h -0.99 v -7.87 h 2.46 q 0.6,0 1.11,0.11 0.51,0.12 0.87,0.38 0.37,0.26 0.57,0.68 0.21,0.42 0.21,1.04 v 0 q 0,0.92 -0.48,1.47 -0.48,0.55 -1.29,0.76 v 0 z m 7.94,0 v -7.87 h 1 V 0 Z m 6.79,0 v -7.03 h -2.37 v -0.84 h 5.76 v 0.84 H 169.7 V 0 Z m 10.65,-1.02 0.6,-0.7 q 0.42,0.45 0.99,0.72 0.57,0.27 1.18,0.27 v 0 q 0.78,0 1.21,-0.36 0.44,-0.35 0.44,-0.93 v 0 q 0,-0.3 -0.11,-0.51 -0.1,-0.21 -0.27,-0.36 -0.18,-0.15 -0.42,-0.27 -0.24,-0.12 -0.51,-0.25 v 0 l -1.13,-0.49 q -0.28,-0.12 -0.56,-0.29 -0.29,-0.17 -0.52,-0.41 -0.23,-0.24 -0.37,-0.57 -0.15,-0.33 -0.15,-0.76 v 0 q 0,-0.44 0.19,-0.83 0.19,-0.38 0.52,-0.66 0.33,-0.28 0.78,-0.44 0.45,-0.16 0.99,-0.16 v 0 q 0.7,0 1.3,0.27 0.6,0.27 1.02,0.71 v 0 l -0.54,0.64 q -0.36,-0.34 -0.79,-0.54 -0.44,-0.2 -0.99,-0.2 v 0 q -0.66,0 -1.07,0.31 -0.4,0.3 -0.4,0.84 v 0 q 0,0.29 0.12,0.49 0.11,0.2 0.3,0.35 0.19,0.15 0.42,0.26 0.23,0.11 0.47,0.21 v 0 l 1.12,0.48 q 0.33,0.14 0.63,0.33 0.3,0.19 0.52,0.43 0.21,0.25 0.34,0.58 0.13,0.33 0.13,0.76 v 0 q 0,0.47 -0.19,0.88 -0.19,0.4 -0.53,0.71 -0.35,0.31 -0.84,0.48 -0.5,0.17 -1.12,0.17 v 0 q -0.83,0 -1.54,-0.31 -0.7,-0.31 -1.22,-0.85 z M 189.51,0 v -3.05 l -2.36,-4.82 h 1.07 l 1.02,2.22 q 0.19,0.43 0.37,0.85 0.18,0.42 0.38,0.86 v 0 h 0.05 q 0.2,-0.44 0.41,-0.86 0.2,-0.42 0.38,-0.85 v 0 l 1.01,-2.22 h 1.04 l -2.36,4.82 V 0 Z m 5.67,-1.02 0.6,-0.7 q 0.42,0.45 0.99,0.72 0.57,0.27 1.19,0.27 v 0 q 0.78,0 1.21,-0.36 0.43,-0.35 0.43,-0.93 v 0 q 0,-0.3 -0.1,-0.51 -0.1,-0.21 -0.28,-0.36 -0.17,-0.15 -0.41,-0.27 -0.24,-0.12 -0.52,-0.25 v 0 l -1.13,-0.49 q -0.27,-0.12 -0.56,-0.29 -0.29,-0.17 -0.52,-0.41 -0.22,-0.24 -0.37,-0.57 -0.14,-0.33 -0.14,-0.76 v 0 q 0,-0.44 0.18,-0.83 0.19,-0.38 0.52,-0.66 0.33,-0.28 0.78,-0.44 0.45,-0.16 0.99,-0.16 v 0 q 0.71,0 1.31,0.27 0.6,0.27 1.02,0.71 v 0 l -0.54,0.64 q -0.36,-0.34 -0.8,-0.54 -0.44,-0.2 -0.99,-0.2 v 0 q -0.66,0 -1.06,0.31 -0.4,0.3 -0.4,0.84 v 0 q 0,0.29 0.11,0.49 0.11,0.2 0.31,0.35 0.19,0.15 0.42,0.26 0.22,0.11 0.46,0.21 v 0 L 199,-4.2 q 0.34,0.14 0.64,0.33 0.3,0.19 0.51,0.43 0.22,0.25 0.34,0.58 0.13,0.33 0.13,0.76 v 0 q 0,0.47 -0.19,0.88 -0.18,0.4 -0.53,0.71 -0.35,0.31 -0.84,0.48 -0.49,0.17 -1.12,0.17 v 0 q -0.82,0 -1.53,-0.31 -0.71,-0.31 -1.23,-0.85 z M 205.56,0 v -7.03 h -2.38 v -0.84 h 5.76 v 0.84 h -2.37 V 0 Z m 6.8,0 v -7.87 h 4.54 v 0.84 h -3.54 v 2.47 h 2.98 v 0.85 h -2.98 v 2.86 h 3.66 V 0 Z m 8.32,0 v -7.87 h 1.18 l 1.52,4.22 0.58,1.61 h 0.05 l 0.55,-1.61 1.51,-4.22 h 1.18 V 0 h -0.95 v -4.33 q 0,-0.53 0.04,-1.17 0.04,-0.63 0.09,-1.16 v 0 h -0.05 l -0.63,1.75 -1.51,4.12 h -0.57 l -1.52,-4.12 -0.63,-1.75 h -0.04 q 0.03,0.53 0.08,1.16 0.05,0.64 0.05,1.17 v 0 V 0 Z"
               transform="translate(-1.08,8.016)"
               id="path45" />
          </g>
        </g>
      </g>
    </g>
  </g>
  <defs
     v-gra="od"
     id="defs57" />
</svg>
