<?xml version="1.0" encoding="UTF-8" standalone="no"?>
<svg
   version="1.1"
   viewBox="0 0 402.01001 377"
   id="svg210"
   sodipodi:docname="pixel_mouse.svg"
   width="402.01001"
   height="377"
   inkscape:version="1.1.2 (0a00cf5339, 2022-02-04)"
   xmlns:inkscape="http://www.inkscape.org/namespaces/inkscape"
   xmlns:sodipodi="http://sodipodi.sourceforge.net/DTD/sodipodi-0.dtd"
   xmlns="http://www.w3.org/2000/svg"
   xmlns:svg="http://www.w3.org/2000/svg">
  <defs
     id="defs214" />
  <sodipodi:namedview
     id="namedview212"
     pagecolor="#ffffff"
     bordercolor="#666666"
     borderopacity="1.0"
     inkscape:pageshadow="2"
     inkscape:pageopacity="0.0"
     inkscape:pagecheckerboard="0"
     showgrid="false"
     fit-margin-top="0"
     fit-margin-left="0"
     fit-margin-right="0"
     fit-margin-bottom="0"
     inkscape:zoom="1.820763"
     inkscape:cx="51.077486"
     inkscape:cy="244.67764"
     inkscape:window-width="2515"
     inkscape:window-height="1379"
     inkscape:window-x="45"
     inkscape:window-y="30"
     inkscape:window-maximized="1"
     inkscape:current-layer="layer1" />
  <g
     inkscape:groupmode="layer"
     id="layer1"
     inkscape:label="Layer 1"
     style="display:inline">
    <path
       style="display:inline;fill:#ffffff;fill-opacity:1;stroke:none;stroke-width:1px;stroke-linecap:butt;stroke-linejoin:miter;stroke-opacity:0.319875"
       d="M 26.01,26.01 76.010002,26 V 51 H 101.01 L 101.0917,75.684286 150.72,76 150.96444,50.864601 201,50.99 201.01,26 h 75.00001 v 25 h 25 L 301,101 h 25.01999 l -0.01,100.01 49.94567,0.42231 L 376,251.01 l -49.91603,0.0956 -0.039,24.87306 -24.90345,0.094 -0.0115,24.90736 -24.99399,0.003 -0.11485,-49.9538 -124.98182,-0.0748 -0.0173,-74.87375 -25.03622,-0.0297 0.0691,-25.01257 -24.98098,-0.0541 -0.0189,-25.03609 -24.942275,0.0697 -0.123734,-24.91413 -25.412717,0.007 0.01203,-24.838068 -24.568304,-0.007 z"
       id="path1654"
       sodipodi:nodetypes="ccccccccccccccccccccccccccccccccccc" />
  </g>
  <g
     inkscape:groupmode="layer"
     id="layer2"
     inkscape:label="Layer 2"
     style="display:inline">
    <g
       stroke-width="2"
       fill="none"
       stroke-linecap="butt"
       id="g138"
       transform="translate(-208.99,-40)">
      <path
         stroke="#7b7b7b"
         vector-effect="non-scaling-stroke"
         d="m 235,66.01 -24.52,0.05 q -0.48,0 -0.48,0.48 l -0.01,74.18 a 0.31,0.3 0 0 0 0.31,0.3 h 24.43"
         id="path2" />
      <path
         stroke="#d9d9d9"
         vector-effect="non-scaling-stroke"
         d="m 234.73,141.02 q -0.01,0.22 0.27,0.22"
         id="path4" />
      <path
         stroke="#7b7b7b"
         vector-effect="non-scaling-stroke"
         d="m 235,141.24 -0.01,24.44 a 0.32,0.32 0 0 0 0.32,0.32 h 24.4"
         id="path6" />
      <path
         stroke="#d9d9d9"
         vector-effect="non-scaling-stroke"
         d="m 259.71,166 q -0.14,0.94 0.28,0.07"
         id="path8" />
      <path
         stroke="#7b7b7b"
         vector-effect="non-scaling-stroke"
         d="m 259.99,166.07 -0.01,99.6 a 0.33,0.32 0 0 0 0.33,0.32 h 24.7"
         id="path10" />
      <path
         stroke="#7b7b7b"
         vector-effect="non-scaling-stroke"
         d="m 285.01,265.99 v 24.7 a 0.3,0.3 0 0 0 0.3,0.3 l 24.65,0.01"
         id="path12" />
      <path
         stroke="#d9d9d9"
         vector-effect="non-scaling-stroke"
         d="m 309.96,291 q 0.01,0.01 0.03,0.02"
         id="path14" />
      <path
         stroke="#7b7b7b"
         vector-effect="non-scaling-stroke"
         d="m 309.99,291.02 v 24.66 a 0.32,0.31 0 0 0 0.32,0.31 l 24.62,0.01"
         id="path16" />
      <path
         stroke="#d9d9d9"
         vector-effect="non-scaling-stroke"
         d="m 334.93,316 q 0.03,0 0.05,0"
         id="path18" />
      <path
         stroke="#7b7b7b"
         vector-effect="non-scaling-stroke"
         d="m 334.98,316 0.01,24.51 q 0,0.49 0.49,0.49 l 74.01,-0.01 q 0.5,0 0.5,0.5 l 0.01,49.23 a 0.27,0.27 0 0 0 0.27,0.27 l 24.76,0.01"
         id="path20" />
      <path
         stroke="#7b7b7b"
         vector-effect="non-scaling-stroke"
         d="m 435.03,391 -0.02,24.71 a 0.29,0.28 90 0 0 0.28,0.29 h 49.21 q 0.5,0 0.5,-0.5 v -24 a 0.5,0.5 0 0 1 0.5,-0.5 l 23.95,0.01 q 0.51,0 0.51,-0.51 L 510,365.99"
         id="path22" />
      <path
         stroke="#7b7b7b"
         vector-effect="non-scaling-stroke"
         d="m 510,365.99 24.42,-0.06 q 0.5,-0.01 0.5,-0.51 l 0.07,-24.43"
         id="path24" />
      <path
         stroke="#7b7b7b"
         vector-effect="non-scaling-stroke"
         d="m 534.99,340.99 24.43,-0.07 q 0.5,0 0.5,-0.5 l 0.07,-24.43"
         id="path26" />
      <path
         stroke="#7b7b7b"
         vector-effect="non-scaling-stroke"
         d="m 559.99,315.99 24.43,-0.06 q 0.5,-0.01 0.5,-0.51 l 0.07,-24.41"
         id="path28" />
      <path
         stroke="#7b7b7b"
         vector-effect="non-scaling-stroke"
         d="M 584.99,291.01 609.72,291 A 0.28,0.28 0 0 0 610,290.72 V 241.5 a 0.5,0.5 0 0 0 -0.5,-0.5 h -24.22 a 0.28,0.28 0 0 0 -0.28,0.28 l -0.01,49.73"
         id="path30" />
      <path
         stroke="#7b7b7b"
         vector-effect="non-scaling-stroke"
         d="M 584.99,291.01 H 560.05"
         id="path32" />
      <path
         stroke="#d9d9d9"
         vector-effect="non-scaling-stroke"
         d="m 560.05,291.01 -24.61,0.01 a 0.44,0.44 0 0 0 -0.44,0.44 l 0.01,23.28 a 1.26,1.26 0 0 1 -1.26,1.26 h -23.04 q -0.62,0 -0.61,0.61 l 0.02,24.37"
         id="path34" />
      <path
         stroke="#d9d9d9"
         vector-effect="non-scaling-stroke"
         d="m 510.12,340.98 -24.82,0.01 q -0.33,0 -0.33,-0.33 V 316"
         id="path36" />
      <path
         stroke="#7b7b7b"
         vector-effect="non-scaling-stroke"
         d="m 484.97,316 v -24.69 a 0.27,0.27 0 0 0 -0.27,-0.27 L 459.99,291"
         id="path38" />
      <path
         stroke="#d9d9d9"
         vector-effect="non-scaling-stroke"
         d="m 459.99,291 -99.48,-0.01 q -0.52,0 -0.52,-0.52 V 216.5 A 0.5,0.49 90 0 0 359.5,216 l -23.99,0.01 a 0.51,0.5 0 0 1 -0.51,-0.5 l -0.01,-24.26 A 0.25,0.24 90 0 0 334.75,191 H 311 a 1,1 0 0 1 -1,-1 v -23.5 q 0,-0.5 -0.5,-0.5 l -23.74,0.01 q -0.74,0 -0.74,-0.75 l -0.04,-24.02 a 0.24,0.23 0 0 0 -0.24,-0.23 L 261.01,141 a 1,0.99 0 0 1 -1,-0.99 l -0.02,-23.29 q 0,-0.71 -0.71,-0.71 l -24.27,0.05"
         id="path40" />
      <path
         stroke="#7b7b7b"
         vector-effect="non-scaling-stroke"
         d="M 235.01,116.06 235,66.01"
         id="path42" />
      <path
         stroke="#7b7b7b"
         vector-effect="non-scaling-stroke"
         d="M 235,66.01 284.5,66 q 0.5,0 0.5,-0.5 V 41.25 a 0.25,0.24 0 0 0 -0.25,-0.24 L 235.25,41 A 0.25,0.25 0 0 0 235,41.25 v 24.76"
         id="path44" />
      <path
         stroke="#5e5e5e"
         vector-effect="non-scaling-stroke"
         d="m 235.01,116.06 -0.28,24.96"
         id="path46" />
      <path
         stroke="#5e5e5e"
         vector-effect="non-scaling-stroke"
         d="M 459.99,291 460,316"
         id="path48" />
      <path
         stroke="#5e5e5e"
         vector-effect="non-scaling-stroke"
         d="M 460,316 H 334.98"
         id="path50" />
      <path
         stroke="#5e5e5e"
         vector-effect="non-scaling-stroke"
         d="m 334.93,316 -0.02,-24.4 q 0,-0.5 -0.51,-0.5 l -24.41,-0.08"
         id="path52" />
      <path
         stroke="#5e5e5e"
         vector-effect="non-scaling-stroke"
         d="m 309.96,291 0.03,-25"
         id="path54" />
      <path
         stroke="#9a9a9a"
         vector-effect="non-scaling-stroke"
         d="m 309.99,266 -0.02,-24.41 a 0.59,0.59 0 0 1 0.59,-0.59 h 23.82 q 0.62,0 0.62,-0.63 v -23.83 q 0,-0.53 -0.53,-0.53 L 310,215.99"
         id="path56" />
      <path
         stroke="#5e5e5e"
         vector-effect="non-scaling-stroke"
         d="M 310,215.99 V 191.25 A 0.25,0.25 0 0 0 309.75,191 h -24.5 a 0.25,0.24 90 0 1 -0.24,-0.25 L 285,166.31 a 0.24,0.24 0 0 0 -0.24,-0.24 h -24.77"
         id="path58" />
      <path
         stroke="#5e5e5e"
         vector-effect="non-scaling-stroke"
         d="m 259.71,166 0.27,-24.46 A 0.54,0.53 0.5 0 0 259.44,141 q -11.88,0.01 -24.07,0 -0.11,0 -0.17,0.09 -0.09,0.12 -0.2,0.15"
         id="path60" />
      <path
         stroke="#5e5e5e"
         vector-effect="non-scaling-stroke"
         d="M 484.97,316 H 460"
         id="path62" />
      <path
         stroke="#5e5e5e"
         vector-effect="non-scaling-stroke"
         d="M 510.12,340.98 510,365.99"
         id="path64" />
      <path
         stroke="#5e5e5e"
         vector-effect="non-scaling-stroke"
         d="m 510,365.99 -24.93,-0.01"
         id="path66" />
      <path
         stroke="#9a9a9a"
         vector-effect="non-scaling-stroke"
         d="m 485.07,365.98 -24.65,0.04 a 0.44,0.43 -90 0 1 -0.43,-0.44 l -0.01,-24.56"
         id="path68" />
      <path
         stroke="#3d3d3d"
         vector-effect="non-scaling-stroke"
         d="m 309.99,266 -24.98,-0.01"
         id="path70" />
      <path
         stroke="#5e5e5e"
         vector-effect="non-scaling-stroke"
         d="m 460,316 -0.02,25.02"
         id="path72" />
      <path
         stroke="#3d3d3d"
         vector-effect="non-scaling-stroke"
         d="m 459.98,341.02 -24.38,0.07 q -0.51,0 -0.51,0.51 l -0.06,49.4"
         id="path74" />
      <path
         stroke="#3d3d3d"
         vector-effect="non-scaling-stroke"
         d="m 310,215.99 -24.44,0.11 q -0.51,0 -0.51,0.51 l -0.04,49.38"
         id="path76" />
      <path
         stroke="#5e5e5e"
         vector-effect="non-scaling-stroke"
         d="m 560.05,291.01 -0.06,24.98"
         id="path78" />
      <path
         stroke="#5e5e5e"
         vector-effect="non-scaling-stroke"
         d="m 559.99,315.99 h -24.36 q -0.63,0 -0.63,0.63 l -0.01,24.37"
         id="path80" />
      <path
         stroke="#5e5e5e"
         vector-effect="non-scaling-stroke"
         d="m 534.99,340.99 -24.87,-0.01"
         id="path82" />
      <path
         stroke="#3d3d3d"
         vector-effect="non-scaling-stroke"
         d="m 485.07,365.98 -0.02,23.99 a 1.03,1.02 90 0 1 -1.02,1.03 h -49"
         id="path84" />
      <path
         stroke="#7b7b7b"
         vector-effect="non-scaling-stroke"
         d="M 410,66 H 360.29 A 0.29,0.29 0 0 0 360,66.29 V 90.5 q 0,0.51 -0.5,0.51 h -49 q -0.5,0 -0.5,0.49 v 24.21 a 0.28,0.28 0 0 0 0.28,0.28 l 49.43,0.01"
         id="path86" />
      <path
         stroke="#d9d9d9"
         vector-effect="non-scaling-stroke"
         d="m 359.71,116 q -4,1.19 0.27,0.21"
         id="path88" />
      <path
         stroke="#7b7b7b"
         vector-effect="non-scaling-stroke"
         d="m 359.98,116.21 -0.01,24.31 q 0,0.41 0.4,0.41 h 24.67"
         id="path90" />
      <path
         stroke="#d9d9d9"
         vector-effect="non-scaling-stroke"
         d="m 385.04,140.93 24.35,-0.02 Q 410,140.9 410,140.29 v -23.57 a 0.7,0.7 0 0 0 -0.7,-0.7 l -24.27,0.05"
         id="path92" />
      <path
         stroke="#7b7b7b"
         vector-effect="non-scaling-stroke"
         d="m 385.03,116.07 q 0.01,-0.04 0.01,-0.09"
         id="path94" />
      <path
         stroke="#d9d9d9"
         vector-effect="non-scaling-stroke"
         d="M 385.04,115.98 384.99,91.01"
         id="path96" />
      <path
         stroke="#7b7b7b"
         vector-effect="non-scaling-stroke"
         d="m 384.99,91.01 h 24.97"
         id="path98" />
      <path
         stroke="#d9d9d9"
         vector-effect="non-scaling-stroke"
         d="m 409.96,91.01 q 0.01,-0.01 0.03,-0.02"
         id="path100" />
      <path
         stroke="#7b7b7b"
         vector-effect="non-scaling-stroke"
         d="m 409.99,90.99 v 24.58 a 0.4,0.4 0 0 0 0.4,0.4 h 24.62"
         id="path102" />
      <path
         stroke="#d9d9d9"
         vector-effect="non-scaling-stroke"
         d="m 435.01,115.97 24.5,-0.01 a 0.49,0.48 -90 0 0 0.48,-0.49 V 91.75 A 0.75,0.75 0 0 0 459.24,91 l -23.52,0.01 A 0.72,0.72 0 0 1 435,90.29 l -0.01,-24.28"
         id="path104" />
      <path
         stroke="#7b7b7b"
         vector-effect="non-scaling-stroke"
         d="m 434.99,66.01 49.53,0.01 A 0.48,0.47 0 0 0 485,65.55 v -24.3 a 0.25,0.24 0 0 0 -0.25,-0.24 L 410.54,41 q -0.48,0 -0.48,0.48 L 410,66"
         id="path106" />
      <path
         stroke="#5e5e5e"
         vector-effect="non-scaling-stroke"
         d="M 434.99,66.01 410,66"
         id="path108" />
      <path
         stroke="#5e5e5e"
         vector-effect="non-scaling-stroke"
         d="M 435.01,115.97 435,91.51 A 0.51,0.51 0 0 0 434.49,91 l -24.5,-0.01"
         id="path110" />
      <path
         stroke="#5e5e5e"
         vector-effect="non-scaling-stroke"
         d="m 410,66 -0.04,25.01"
         id="path112" />
      <path
         stroke="#5e5e5e"
         vector-effect="non-scaling-stroke"
         d="m 384.99,91.01 -24.37,0.07 q -0.51,0 -0.52,0.51 L 359.71,116"
         id="path114" />
      <path
         stroke="#5e5e5e"
         vector-effect="non-scaling-stroke"
         d="m 385.04,115.98 -25.06,0.23"
         id="path116" />
      <path
         stroke="#5e5e5e"
         vector-effect="non-scaling-stroke"
         d="m 385.03,116.07 0.01,24.86"
         id="path118" />
      <path
         stroke="#7b7b7b"
         vector-effect="non-scaling-stroke"
         d="M 310,66.36 A 0.36,0.36 0 0 0 309.64,66 H 285.36 A 0.36,0.36 0 0 0 285,66.36 v 24.28 a 0.36,0.36 0 0 0 0.36,0.36 h 24.28 A 0.36,0.36 0 0 0 310,90.64 V 66.36"
         id="path120" />
      <path
         stroke="#7b7b7b"
         vector-effect="non-scaling-stroke"
         d="M 510,66.44 A 0.44,0.44 0 0 0 509.56,66 H 485.44 A 0.44,0.44 0 0 0 485,66.44 v 24.12 a 0.44,0.44 0 0 0 0.44,0.44 h 24.12 A 0.44,0.44 0 0 0 510,90.56 V 66.44"
         id="path122" />
      <path
         stroke="#7b7b7b"
         vector-effect="non-scaling-stroke"
         d="M 535.01,91.35 A 0.35,0.35 0 0 0 534.66,91 h -24.32 a 0.35,0.35 0 0 0 -0.35,0.35 v 49.3 a 0.35,0.35 0 0 0 0.35,0.35 h 24.32 a 0.35,0.35 0 0 0 0.35,-0.35 v -49.3"
         id="path124" />
      <path
         stroke="#a5a5a5"
         vector-effect="non-scaling-stroke"
         d="M 485,141.56 A 0.56,0.56 0 0 0 484.44,141 h -23.88 a 0.56,0.56 0 0 0 -0.56,0.56 v 23.88 a 0.56,0.56 0 0 0 0.56,0.56 h 23.88 a 0.56,0.56 0 0 0 0.56,-0.56 v -23.88"
         id="path126" />
      <path
         stroke="#7b7b7b"
         vector-effect="non-scaling-stroke"
         d="m 535,241.01 -24.5,0.04 q -0.51,0 -0.51,0.51 l 0.01,24.19 a 0.25,0.25 0 0 0 0.25,0.25 h 24.47 a 0.28,0.28 0 0 0 0.28,-0.28 v -24.71"
         id="path128" />
      <path
         stroke="#7b7b7b"
         vector-effect="non-scaling-stroke"
         d="M 535,241.01 584.55,241 A 0.46,0.45 90 0 0 585,240.54 V 216.5 a 0.5,0.5 0 0 0 -0.5,-0.5 h -24 q -0.5,0 -0.5,-0.5 v -74 a 0.5,0.5 0 0 0 -0.5,-0.5 h -24.04 a 0.46,0.45 0 0 0 -0.46,0.45 v 99.56"
         id="path130" />
      <path
         stroke="#a5a5a5"
         vector-effect="non-scaling-stroke"
         d="M 435,166.52 A 0.52,0.52 0 0 0 434.48,166 h -23.96 a 0.52,0.52 0 0 0 -0.52,0.52 v 23.96 a 0.52,0.52 0 0 0 0.52,0.52 h 23.96 a 0.52,0.52 0 0 0 0.52,-0.52 v -23.96"
         id="path132" />
      <path
         stroke="#a5a5a5"
         vector-effect="non-scaling-stroke"
         d="M 510,166.57 A 0.57,0.57 0 0 0 509.43,166 h -23.86 a 0.57,0.57 0 0 0 -0.57,0.57 v 23.86 a 0.57,0.57 0 0 0 0.57,0.57 h 23.86 a 0.57,0.57 0 0 0 0.57,-0.57 v -23.86"
         id="path134" />
      <path
         stroke="#a5a5a5"
         vector-effect="non-scaling-stroke"
         d="M 460,191.47 A 0.47,0.47 0 0 0 459.53,191 h -24.06 a 0.47,0.47 0 0 0 -0.47,0.47 v 24.06 a 0.47,0.47 0 0 0 0.47,0.47 h 24.06 a 0.47,0.47 0 0 0 0.47,-0.47 v -24.06"
         id="path136" />
    </g>
    <path
       fill="#000000"
       d="M 26.01,26.01 V 1.25 A 0.25,0.25 0 0 1 26.26,1 l 49.5,0.01 a 0.25,0.24 0 0 1 0.25,0.24 V 25.5 q 0,0.5 -0.5,0.5 z"
       id="path142" />
    <path
       fill="#000000"
       d="M 226,26.01 201.01,26 201.07,1.48 Q 201.07,1 201.55,1 l 74.21,0.01 a 0.25,0.24 0 0 1 0.25,0.24 v 24.3 a 0.48,0.47 0 0 1 -0.48,0.47 z"
       id="path144" />
    <path
       fill="#000000"
       d="m 26.01,26.01 0.01,50.05 -0.28,24.96 H 1.31 A 0.31,0.3 0 0 1 1,100.72 L 1.01,26.54 q 0,-0.48 0.48,-0.48 z"
       id="path146" />
    <rect
       fill="#000000"
       x="76.010002"
       y="26"
       width="25"
       height="25"
       rx="0.36000001"
       id="rect148" />
    <path
       fill="#000000"
       d="m 201.01,26 -0.04,25.01 H 176 l -24.37,0.07 q -0.51,0 -0.52,0.51 L 150.72,76 101.29,75.99 a 0.28,0.28 0 0 1 -0.28,-0.28 V 51.5 q 0,-0.49 0.5,-0.49 h 49 q 0.5,0 0.5,-0.51 V 26.29 A 0.29,0.29 0 0 1 151.3,26 Z"
       id="path150" />
    <path
       fill="#bbbbbb"
       d="m 201.01,26 24.99,0.01 0.01,24.28 a 0.72,0.72 0 0 0 0.72,0.72 L 250.25,51 a 0.75,0.75 0 0 1 0.75,0.75 v 23.72 a 0.48,0.49 0 0 1 -0.48,0.49 l -24.5,0.01 -0.01,-24.46 A 0.51,0.51 0 0 0 225.5,51 L 201,50.99 q -0.02,0.01 -0.03,0.02 z"
       id="path152" />
    <rect
       fill="#000000"
       x="276.01001"
       y="26"
       width="25"
       height="25"
       rx="0.44"
       id="rect154" />
    <path
       fill="#bbbbbb"
       d="m 176,51.01 0.05,24.97 -25.06,0.23 q -4.27,0.98 -0.27,-0.21 l 0.39,-24.41 q 0.01,-0.51 0.52,-0.51 z"
       id="path156" />
    <path
       fill="#000000"
       d="M 201,50.99 225.5,51 a 0.51,0.51 0 0 1 0.51,0.51 l 0.01,24.46 H 201.4 a 0.4,0.4 0 0 1 -0.4,-0.4 z"
       id="path158" />
    <rect
       fill="#000000"
       x="301"
       y="51"
       width="25.02"
       height="50"
       rx="0.34999999"
       id="rect160" />
    <path
       fill="#bbbbbb"
       d="m 26.02,76.06 24.27,-0.05 q 0.71,0 0.71,0.71 l 0.02,23.29 a 1,0.99 0 0 0 1,0.99 l 23.73,0.01 a 0.24,0.23 0 0 1 0.24,0.23 l 0.04,24.02 q 0,0.75 0.74,0.75 L 100.51,126 q 0.5,0 0.5,0.5 V 150 a 1,1 0 0 0 1,1 h 23.75 a 0.24,0.25 0 0 1 0.24,0.25 l 0.01,24.26 a 0.51,0.5 0 0 0 0.51,0.5 L 150.51,176 a 0.49,0.5 0 0 1 0.49,0.5 v 73.97 q 0,0.52 0.52,0.52 L 251,251 l 0.01,25 H 125.99 q -0.02,0 -0.05,0 l -0.02,-24.4 q 0,-0.5 -0.51,-0.5 L 101,251.02 q -0.02,-0.01 -0.03,-0.02 l 0.03,-25 -0.02,-24.41 a 0.59,0.59 0 0 1 0.59,-0.59 h 23.82 q 0.62,0 0.62,-0.63 v -23.83 q 0,-0.53 -0.53,-0.53 l -24.47,-0.02 V 151.25 A 0.25,0.25 0 0 0 100.76,151 h -24.5 a 0.24,0.25 0 0 1 -0.24,-0.25 l -0.01,-24.44 a 0.24,0.24 0 0 0 -0.24,-0.24 H 51 q -0.42,0.87 -0.28,-0.07 l 0.27,-24.46 A 0.54,0.53 0.5 0 0 50.45,101 q -11.88,0.01 -24.07,0 -0.11,0 -0.17,0.09 -0.09,0.12 -0.2,0.15 -0.28,0 -0.27,-0.22 z"
       id="path162" />
    <path
       fill="#000000"
       d="m 176.05,75.98 q 0,0.05 -0.01,0.09 l 0.01,24.86 h -24.67 q -0.4,0 -0.4,-0.41 l 0.01,-24.31 z"
       id="path164" />
    <path
       fill="#bbbbbb"
       d="m 176.05,100.93 -0.01,-24.86 24.27,-0.05 a 0.7,0.7 0 0 1 0.7,0.7 v 23.57 q 0,0.61 -0.61,0.62 z"
       id="path166" />
    <path
       fill="#000000"
       d="M 50.72,126 H 26.32 A 0.32,0.32 0 0 1 26,125.68 l 0.01,-24.44 q 0.11,-0.03 0.2,-0.15 0.06,-0.09 0.17,-0.09 12.19,0.01 24.07,0 a 0.54,0.53 0.5 0 1 0.54,0.54 z"
       id="path168" />
    <rect
       fill="#545454"
       x="251.00999"
       y="101"
       width="25"
       height="25"
       rx="0.56"
       id="rect170" />
    <path
       fill="#000000"
       d="m 326.01,201.01 v -99.56 a 0.46,0.45 0 0 1 0.46,-0.45 h 24.04 a 0.5,0.5 0 0 1 0.5,0.5 v 74 q 0,0.5 0.5,0.5 h 24 a 0.5,0.5 0 0 1 0.5,0.5 v 24.04 a 0.45,0.46 0 0 1 -0.45,0.46 z"
       id="path172" />
    <path
       fill="#000000"
       d="m 101.01,175.99 -24.44,0.11 q -0.51,0 -0.51,0.51 l -0.04,49.38 h -24.7 a 0.33,0.32 0 0 1 -0.33,-0.32 L 51,126.07 h 24.77 a 0.24,0.24 0 0 1 0.24,0.24 l 0.01,24.44 a 0.24,0.25 0 0 0 0.24,0.25 h 24.5 a 0.25,0.25 0 0 1 0.25,0.25 z"
       id="path174" />
    <rect
       fill="#545454"
       x="201.00999"
       y="126"
       width="25"
       height="25"
       rx="0.51999998"
       id="rect176" />
    <rect
       fill="#545454"
       x="276.01001"
       y="126"
       width="25"
       height="25"
       rx="0.56999999"
       id="rect178" />
    <rect
       fill="#545454"
       x="226.00999"
       y="151"
       width="25"
       height="25"
       rx="0.47"
       id="rect180" />
    <path
       fill="#797979"
       d="m 101.01,175.99 24.47,0.02 q 0.53,0 0.53,0.53 v 23.83 q 0,0.63 -0.62,0.63 h -23.82 a 0.59,0.59 0 0 0 -0.59,0.59 L 101,226 76.02,225.99 76.06,176.61 q 0,-0.51 0.51,-0.51 z"
       id="path182" />
    <path
       fill="#000000"
       d="m 326.01,201.01 v 24.71 a 0.28,0.28 0 0 1 -0.28,0.28 h -24.47 a 0.25,0.25 0 0 1 -0.25,-0.25 L 301,201.56 q 0,-0.51 0.51,-0.51 z"
       id="path184" />
    <path
       fill="#000000"
       d="m 376,251.01 0.01,-49.73 a 0.28,0.28 0 0 1 0.28,-0.28 h 24.22 a 0.5,0.5 0 0 1 0.5,0.5 v 49.22 a 0.28,0.28 0 0 1 -0.28,0.28 z"
       id="path186" />
    <path
       fill="#000000"
       d="M 76.02,225.99 101,226 l -0.03,25 -24.65,-0.01 a 0.3,0.3 0 0 1 -0.3,-0.3 z"
       id="path188" />
    <path
       fill="#000000"
       d="m 101,251.02 24.41,0.08 q 0.51,0 0.51,0.5 l 0.02,24.4 -24.62,-0.01 A 0.32,0.31 0 0 1 101,275.68 Z"
       id="path190" />
    <path
       fill="#000000"
       d="m 251,251 24.71,0.04 a 0.27,0.27 0 0 1 0.27,0.27 V 276 h -24.97 z"
       id="path192" />
    <path
       fill="#bbbbbb"
       d="M 351.06,251.01 351,275.99 h -24.36 q -0.63,0 -0.63,0.63 l -0.01,24.37 -24.87,-0.01 -0.02,-24.37 Q 301.1,276 301.72,276 h 23.04 a 1.26,1.26 0 0 0 1.26,-1.26 l -0.01,-23.28 a 0.44,0.44 0 0 1 0.44,-0.44 z"
       id="path194" />
    <path
       fill="#000000"
       d="M 351.06,251.01 H 376 l -0.07,24.41 q 0,0.5 -0.5,0.51 L 351,275.99 Z"
       id="path196" />
    <path
       fill="#000000"
       d="m 125.99,276 h 125.02 l -0.02,25.02 -24.38,0.07 q -0.51,0 -0.51,0.51 l -0.06,49.4 -24.76,-0.01 a 0.27,0.27 0 0 1 -0.27,-0.27 L 201,301.49 q 0,-0.5 -0.5,-0.5 L 126.49,301 Q 126,301 126,300.51 Z"
       id="path198" />
    <path
       fill="#bbbbbb"
       d="m 251.01,276 h 24.97 v 24.66 q 0,0.33 0.33,0.33 l 24.82,-0.01 -0.12,25.01 -24.93,-0.01 -24.65,0.04 A 0.43,0.44 0 0 1 251,325.58 l -0.01,-24.56 z"
       id="path200" />
    <path
       fill="#000000"
       d="m 351,275.99 -0.07,24.43 q 0,0.5 -0.5,0.5 l -24.43,0.07 0.01,-24.37 q 0,-0.63 0.63,-0.63 z"
       id="path202" />
    <path
       fill="#797979"
       d="m 250.99,301.02 0.01,24.56 a 0.43,0.44 0 0 0 0.43,0.44 l 24.65,-0.04 -0.02,23.99 a 1.02,1.03 0 0 1 -1.02,1.03 h -49 l 0.06,-49.4 q 0,-0.51 0.51,-0.51 z"
       id="path204" />
    <path
       fill="#000000"
       d="m 301.13,300.98 24.87,0.01 -0.07,24.43 q 0,0.5 -0.5,0.51 l -24.42,0.06 z"
       id="path206" />
    <path
       fill="#000000"
       d="m 276.08,325.98 24.93,0.01 -0.04,24.51 q 0,0.51 -0.51,0.51 L 276.51,351 a 0.5,0.5 0 0 0 -0.5,0.5 v 24 q 0,0.5 -0.5,0.5 H 226.3 a 0.28,0.29 0 0 1 -0.28,-0.29 L 226.04,351 h 49 a 1.02,1.03 0 0 0 1.02,-1.03 z"
       id="path208" />
    <rect
       style="fill:#ff8080"
       id="rect1001"
       width="0.0099997707"
       height="0.20610565"
       x="26.01"
       y="76.059998" />
  </g>
</svg>
