<?xml version="1.0" encoding="UTF-8" standalone="no"?>
<svg
   version="1.1"
   viewBox="0 0 177.32002 212.25052"
   id="svg56"
   sodipodi:docname="pixel_pc.svg"
   width="177.32002"
   height="212.25052"
   inkscape:version="1.1.2 (0a00cf5339, 2022-02-04)"
   xmlns:inkscape="http://www.inkscape.org/namespaces/inkscape"
   xmlns:sodipodi="http://sodipodi.sourceforge.net/DTD/sodipodi-0.dtd"
   xmlns="http://www.w3.org/2000/svg"
   xmlns:svg="http://www.w3.org/2000/svg">
  <defs
     id="defs60" />
  <sodipodi:namedview
     id="namedview58"
     pagecolor="#ffffff"
     bordercolor="#666666"
     borderopacity="1.0"
     inkscape:pageshadow="2"
     inkscape:pageopacity="0.0"
     inkscape:pagecheckerboard="0"
     showgrid="false"
     fit-margin-top="0"
     fit-margin-left="0"
     fit-margin-right="0"
     fit-margin-bottom="0"
     inkscape:zoom="1.1083333"
     inkscape:cx="-212.4812"
     inkscape:cy="97.443609"
     inkscape:window-width="1712"
     inkscape:window-height="899"
     inkscape:window-x="0"
     inkscape:window-y="0"
     inkscape:window-maximized="1"
     inkscape:current-layer="svg56" />
  <g
     stroke-width="2"
     fill="none"
     stroke-linecap="butt"
     id="g30"
     transform="translate(-302.65998,-202.02)">
    <path
       stroke="#fffbe8"
       vector-effect="non-scaling-stroke"
       d="m 315.74,401.16 q 0.11,0.11 0.14,0.09"
       id="path2" />
    <path
       stroke="#807b68"
       vector-effect="non-scaling-stroke"
       d="m 315.88,401.25 q -0.69,4.17 -0.64,8.52 0.03,3.01 3.07,3.04 73.99,0.89 148.38,0.06 0.58,-0.01 0.59,-0.59 l 0.07,-10.1 a 0.85,0.85 0 0 1 0.85,-0.85 l 10.14,-0.03 q 0.64,0 0.64,-0.64 v -56.99 q 0,-0.59 -0.6,-0.59 L 467.28,343"
       id="path4" />
    <path
       stroke="#807b68"
       vector-effect="non-scaling-stroke"
       d="m 467.28,343 -0.06,-127.72 q 0,-0.51 -0.51,-0.51 l -11.01,-0.05 0.02,-11.22 a 0.48,0.48 0 0 0 -0.48,-0.48 H 327.93 a 0.58,0.57 -88.4 0 0 -0.57,0.55 l -0.44,9.68 q -0.03,0.66 -0.7,0.64 -4.63,-0.19 -9.47,0.76 -0.5,0.1 -0.64,0.59 -0.85,2.85 -0.82,5.26 0.52,50.1 0.36,98.74 c -0.03,7.77 -0.57,15.53 -0.08,23.09 q 0.04,0.63 -0.59,0.63 l -9.97,0.04 a 1,1 0 0 0 -0.99,0.99 l -0.36,56.63 a 0.97,0.91 -87.8 0 0 0.85,0.97 q 5.83,0.48 11.23,-0.43"
       id="path6" />
    <path
       stroke="#808080"
       vector-effect="non-scaling-stroke"
       d="m 455.7,214.72 -127.84,0.03 q -0.47,0 -0.47,0.47 v 115.49 q 0,0.56 0.57,0.56 l 127.07,0.01 q 0.61,0 0.61,-0.61 l 0.06,-115.95"
       id="path8" />
    <path
       stroke="#808080"
       vector-effect="non-scaling-stroke"
       d="m 467.28,343 -151,0.01 q -0.57,0 -0.57,0.58 l 0.03,57.57"
       id="path10" />
    <path
       stroke="#808080"
       vector-effect="non-scaling-stroke"
       d="m 467.28,343 -0.02,57.94 q 0,0.35 -0.34,0.35 l -151.04,-0.04"
       id="path12" />
    <path
       stroke="#9e9e9e"
       vector-effect="non-scaling-stroke"
       d="m 339,284.77 0.01,34.66 a 0.29,0.28 0 0 0 0.29,0.28 l 104.43,-0.01 a 0.27,0.27 0 0 0 0.27,-0.27 l -0.01,-11.29"
       id="path14" />
    <path
       stroke="#808080"
       vector-effect="non-scaling-stroke"
       d="m 443.99,308.14 -0.01,-81.33 q 0,-0.51 -0.51,-0.51 H 339.56 q -0.48,0 -0.48,0.48 L 339,284.77"
       id="path16" />
    <path
       stroke="#1e1e1e"
       vector-effect="non-scaling-stroke"
       d="m 443.99,308.14 -92.9,-0.17 q -0.48,-0.01 -0.48,-0.49 l 0.04,-22.03 q 0,-0.72 -0.71,-0.72 L 339,284.77"
       id="path18" />
    <path
       stroke="#808080"
       vector-effect="non-scaling-stroke"
       d="m 420.39,249.71 a 0.33,0.33 0 0 1 0.33,0.33 l -0.04,10.93 a 0.33,0.33 0 0 0 0.33,0.33 h 10.97 a 0.33,0.33 0 0 0 0.33,-0.33 l -0.02,-22.65 a 0.33,0.33 0 0 0 -0.33,-0.33 L 409.33,238 a 0.33,0.33 0 0 0 -0.33,0.33 v 11.04 a 0.33,0.33 0 0 0 0.33,0.33 l 11.06,0.01"
       id="path20" />
    <path
       stroke="#808080"
       vector-effect="non-scaling-stroke"
       d="M 432.3,273.32 A 0.32,0.32 0 0 0 431.98,273 h -10.96 a 0.32,0.32 0 0 0 -0.32,0.32 v 11.06 a 0.32,0.32 0 0 0 0.32,0.32 h 10.96 a 0.32,0.32 0 0 0 0.32,-0.32 v -11.06"
       id="path22" />
    <path
       stroke="#cf8587"
       vector-effect="non-scaling-stroke"
       d="m 339.01,354.97 a 0.27,0.27 0 0 0 -0.27,-0.27 h -11.2 a 0.27,0.27 0 0 0 -0.27,0.27 v 11.06 a 0.27,0.27 0 0 0 0.27,0.27 h 11.2 a 0.27,0.27 0 0 0 0.27,-0.27 v -11.06"
       id="path24" />
    <path
       stroke="#808080"
       vector-effect="non-scaling-stroke"
       d="m 444.01,354.98 a 0.28,0.28 0 0 0 -0.28,-0.28 h -57.76 a 0.28,0.28 0 0 0 -0.28,0.28 v 11.04 a 0.28,0.28 0 0 0 0.28,0.28 h 57.76 a 0.28,0.28 0 0 0 0.28,-0.28 v -11.04"
       id="path26" />
    <path
       stroke="#808080"
       vector-effect="non-scaling-stroke"
       d="m 339.0195,378.4503 a 0.45,0.45 0 0 0 -0.4493,-0.4508 l -10.8399,-0.019 a 0.45,0.45 0 0 0 -0.4508,0.4493 l -0.019,10.8399 a 0.45,0.45 0 0 0 0.4493,0.4508 l 10.8399,0.019 a 0.45,0.45 0 0 0 0.4508,-0.4493 l 0.019,-10.8399"
       id="path28" />
  </g>
  <path
     fill="#000000"
     d="m 153.04002,12.7 -127.84,0.03 q -0.47,0 -0.47,0.47 v 115.49 q 0,0.56 0.57,0.56 l 127.07,0.01 q 0.61,0 0.61,-0.61 l 0.06,-115.95 11.01,0.05 q 0.51,0 0.51,0.51 l 0.06,127.72 -151,0.01 q -0.57,0 -0.57,0.58 l 0.03,57.57 q -5.4,0.91 -11.23,0.43 a 0.91,0.97 2.2 0 1 -0.85,-0.97 l 0.36,-56.63 a 1,1 0 0 1 0.99,-0.99 l 9.97,-0.04 q 0.63,0 0.59,-0.63 c -0.49,-7.56 0.05,-15.32 0.08,-23.09 q 0.16,-48.64 -0.36,-98.74 -0.03,-2.41 0.82,-5.26 0.14,-0.49 0.64,-0.59 4.84,-0.95 9.47,-0.76 0.67,0.02 0.7,-0.64 l 0.44,-9.68 a 0.57,0.58 1.6 0 1 0.57,-0.55 h 127.31 a 0.48,0.48 0 0 1 0.48,0.48 z"
     id="path34" />
  <path
     fill="#ffffff"
     d="m 153.04002,12.7 -0.06,115.95 q 0,0.61 -0.61,0.61 l -127.07,-0.01 q -0.57,0 -0.57,-0.56 V 13.2 q 0,-0.47 0.47,-0.47 z m -116.7,70.05 0.01,34.66 a 0.29,0.28 0 0 0 0.29,0.28 l 104.43,-0.01 a 0.27,0.27 0 0 0 0.27,-0.27 l -0.01,-11.29 -0.01,-81.33 q 0,-0.51 -0.51,-0.51 h -103.91 q -0.48,0 -0.48,0.48 z"
     id="path36" />
  <path
     fill="#000000"
     d="m 141.33002,106.12 -92.9,-0.17 q -0.48,-0.01 -0.48,-0.49 l 0.04,-22.03 q 0,-0.72 -0.71,-0.72 l -10.94,0.04 0.08,-57.99 q 0,-0.48 0.48,-0.48 h 103.91 q 0.51,0 0.51,0.51 z m -23.6,-58.43 a 0.33,0.33 0 0 1 0.33,0.33 l -0.04,10.93 a 0.33,0.33 0 0 0 0.33,0.33 h 10.97 a 0.33,0.33 0 0 0 0.33,-0.33 l -0.02,-22.65 a 0.33,0.33 0 0 0 -0.33,-0.33 l -22.63,0.01 a 0.33,0.33 0 0 0 -0.33,0.33 v 11.04 a 0.33,0.33 0 0 0 0.33,0.33 z m 11.91,23.61 a 0.32,0.32 0 0 0 -0.32,-0.32 h -10.96 a 0.32,0.32 0 0 0 -0.32,0.32 v 11.06 a 0.32,0.32 0 0 0 0.32,0.32 h 10.96 a 0.32,0.32 0 0 0 0.32,-0.32 z"
     id="path38" />
  <path
     fill="#ffffff"
     d="m 117.73002,47.69 -11.06,-0.01 a 0.33,0.33 0 0 1 -0.33,-0.33 V 36.31 a 0.33,0.33 0 0 1 0.33,-0.33 l 22.63,-0.01 a 0.33,0.33 0 0 1 0.33,0.33 l 0.02,22.65 a 0.33,0.33 0 0 1 -0.33,0.33 h -10.97 a 0.33,0.33 0 0 1 -0.33,-0.33 l 0.04,-10.93 a 0.33,0.33 0 0 0 -0.33,-0.33 z"
     id="path40" />
  <rect
     fill="#ffffff"
     x="118.04003"
     y="70.980003"
     width="11.6"
     height="11.7"
     rx="0.31999999"
     id="rect42" />
  <path
     fill="#3c3c3c"
     d="m 141.33002,106.12 0.01,11.29 a 0.27,0.27 0 0 1 -0.27,0.27 l -104.43,0.01 a 0.29,0.28 0 0 1 -0.29,-0.28 l -0.01,-34.66 10.94,-0.04 q 0.71,0 0.71,0.72 l -0.04,22.03 q 0,0.48 0.48,0.49 z"
     id="path44" />
  <path
     fill="#ffffff"
     d="m 164.62002,140.98 -0.02,57.94 q 0,0.35 -0.34,0.35 l -151.04,-0.04 q -0.03,0.02 -0.14,-0.09 l -0.03,-57.57 q 0,-0.58 0.57,-0.58 z m -128.27,11.97 a 0.27,0.27 0 0 0 -0.27,-0.27 h -11.2 a 0.27,0.27 0 0 0 -0.27,0.27 v 11.06 a 0.27,0.27 0 0 0 0.27,0.27 h 11.2 a 0.27,0.27 0 0 0 0.27,-0.27 z m 105,0.01 a 0.28,0.28 0 0 0 -0.28,-0.28 h -57.76 a 0.28,0.28 0 0 0 -0.28,0.28 V 164 a 0.28,0.28 0 0 0 0.28,0.28 h 57.76 a 0.28,0.28 0 0 0 0.28,-0.28 z m -104.9905,23.4703 a 0.45,0.45 0 0 0 -0.4493,-0.4508 l -10.8399,-0.019 a 0.45,0.45 0 0 0 -0.4508,0.4493 l -0.019,10.8399 a 0.45,0.45 0 0 0 0.4493,0.4508 l 10.8399,0.019 a 0.45,0.45 0 0 0 0.4508,-0.4493 z"
     id="path46" />
  <path
     fill="#000000"
     d="m 164.62002,140.98 11.1,0.08 q 0.6,0 0.6,0.59 v 56.99 q 0,0.64 -0.64,0.64 l -10.14,0.03 a 0.85,0.85 0 0 0 -0.85,0.85 l -0.07,10.1 q -0.01,0.58 -0.59,0.59 -74.39,0.83 -148.38,-0.06 -3.04,-0.03 -3.07,-3.04 -0.05,-4.35 0.64,-8.52 l 151.04,0.04 q 0.34,0 0.34,-0.35 z"
     id="path48" />
  <rect
     fill="#9e0b0e"
     x="24.610008"
     y="152.68001"
     width="11.74"
     height="11.6"
     rx="0.27000001"
     id="rect50" />
  <rect
     fill="#000000"
     x="83.030022"
     y="152.68001"
     width="58.32"
     height="11.6"
     rx="0.28"
     id="rect52" />
  <rect
     fill="#000000"
     x="24.927341"
     y="175.91652"
     transform="rotate(0.1)"
     width="11.74"
     height="11.74"
     rx="0.44999999"
     id="rect54" />
</svg>
