<?xml version="1.0" encoding="UTF-8" standalone="no"?>
<svg
   version="1.1"
   viewBox="0 0 175.28999 256"
   id="svg156"
   sodipodi:docname="pixel_mouse2.svg"
   width="175.28999"
   height="256"
   inkscape:version="1.1.2 (0a00cf5339, 2022-02-04)"
   xmlns:inkscape="http://www.inkscape.org/namespaces/inkscape"
   xmlns:sodipodi="http://sodipodi.sourceforge.net/DTD/sodipodi-0.dtd"
   xmlns="http://www.w3.org/2000/svg"
   xmlns:svg="http://www.w3.org/2000/svg">
  <defs
     id="defs160" />
  <sodipodi:namedview
     id="namedview158"
     pagecolor="#ffffff"
     bordercolor="#666666"
     borderopacity="1.0"
     inkscape:pageshadow="2"
     inkscape:pageopacity="0.0"
     inkscape:pagecheckerboard="0"
     showgrid="false"
     fit-margin-top="0"
     fit-margin-left="0"
     fit-margin-right="0"
     fit-margin-bottom="0"
     inkscape:zoom="0.74379066"
     inkscape:cx="75.962234"
     inkscape:cy="286.3709"
     inkscape:window-width="1712"
     inkscape:window-height="899"
     inkscape:window-x="0"
     inkscape:window-y="0"
     inkscape:window-maximized="1"
     inkscape:current-layer="svg156" />
  <path
     fill="#070707"
     d="m 40.65,26.93 -13.19,0.03 q -0.56,0 -0.58,0.56 -0.14,5.19 0.07,10.34 0.22,5.11 0.22,10.44 0.12,86.25 0.04,166.48 0,0.52 0.52,0.52 l 12.09,0.01 q 0.59,0 0.58,-0.59 L 40.3,202 l 13,-0.01 q 0.5,0 0.5,-0.5 v -12.3 a 0.78,0.78 0 0 1 0.77,-0.78 l 12.25,-0.01 q 0.47,0 0.47,-0.47 l -0.01,-12.19 q 0,-0.73 0.74,-0.73 h 12.46 q 0.71,0 0.71,0.71 l -0.01,12.19 q 0,0.49 0.49,0.49 l 12.53,0.02 a 0.35,0.35 0 0 1 0.35,0.34 l 0.02,13.6 0.03,12.49 q 0,0.45 0.45,0.45 l 12.3,0.02 a 0.78,0.77 0 0 1 0.78,0.77 l -0.01,12.34 q 0,0.57 0.57,0.57 h 11.86 q 0.63,0 0.64,-0.63 l 0.2,-12.81 0.07,-26.76 q 0,-0.49 -0.49,-0.49 h -12.2 q -0.56,0 -0.56,-0.56 v -25.22 q 0,-0.53 0.53,-0.53 l 39.65,-0.03 13.04,-0.05 q 0.51,0 0.52,-0.51 l 0.13,-13.38 12.59,0.05 q 0.62,0 0.62,0.62 v 26.09 q 0,0.57 -0.57,0.57 H 162.6 q -0.56,0 -0.56,0.55 l -0.01,12.38 a 0.56,0.57 0 0 1 -0.56,0.57 l -25.98,0.01 q -0.41,0 -0.41,0.4 v 52.95 a 0.54,0.54 0 0 1 -0.54,0.54 H 122 q -0.49,0 -0.49,0.5 l -0.01,12.24 q 0,0.5 -0.49,0.5 H 81.26 q -0.5,0 -0.5,-0.5 v -25.96 q 0,-0.46 -0.46,-0.46 l -12.49,0.01 a 0.53,0.54 0 0 1 -0.53,-0.54 v -12.27 q 0,-0.48 -0.49,-0.48 H 54.72 q -0.49,0 -0.49,0.49 l -0.01,12.15 q 0,0.64 -0.65,0.64 l -12.36,0.01 q -0.46,0 -0.46,0.46 v 12.46 q 0,0.75 -0.75,0.75 H 27.75 q -0.5,0 -0.5,0.5 l -0.02,12.37 A 0.36,0.37 0 0 1 26.87,256 H 0.5 Q 0,256 0,255.49 V 13.75 a 0.51,0.51 0 0 1 0.51,-0.51 h 12.3 q 0.54,0 0.54,-0.54 V 0.58 A 0.58,0.58 0 0 1 13.93,0 h 12.7 a 0.61,0.62 0 0 1 0.61,0.62 v 12.12 q 0,0.5 0.51,0.5 h 12.27 q 0.55,0 0.55,0.55 z"
     id="path114" />
  <path
     fill="#ccc"
     d="m 40.65,26.93 q 0,0.03 0.01,0.05 L 40.42,40.12 40.29,80.64 40.3,202 l 0.1,12.72 q 0.01,0.59 -0.58,0.59 L 27.73,215.3 q -0.52,0 -0.52,-0.52 0.08,-80.23 -0.04,-166.48 0,-5.33 -0.22,-10.44 -0.21,-5.15 -0.07,-10.34 0.02,-0.56 0.58,-0.56 z"
     id="path122" />
  <path
     fill="#070707"
     d="m 40.66,26.98 13.02,0.07 q 0.51,0 0.51,0.51 v 12.22 l -0.12,0.25 Q 54,40.18 53.83,40.18 L 40.42,40.12 Z"
     id="path124" />
  <path
     fill="#eeeeee"
     d="m 54.19,39.78 q -0.04,0.26 0.09,0.43 v 13.06 q 0,0.51 0.51,0.51 h 12.22 a 0.72,0.72 0 0 1 0.71,0.72 v 12.02 q 0,0.6 0.59,0.59 l 12.87,-0.32 q 0.12,0.23 0.37,0.35 -0.12,0.05 -0.23,0.09 -0.09,0.04 -0.09,0.14 0.02,6.37 -0.02,12.82 a 0.55,0.54 0 0 0 0.55,0.54 h 12.28 a 0.55,0.55 0 0 1 0.55,0.55 v 12.15 q 0,0.6 0.6,0.6 l 12.57,0.01 q 0.28,0.01 0.35,-0.26 0.03,-0.14 0.02,-0.28 0.56,1.02 0.09,0.61 l -0.04,13.12 a 0.38,0.38 0 0 0 0.38,0.38 h 12.38 a 0.58,0.57 0.5 0 1 0.57,0.57 v 12.64 a 0.26,0.26 0 0 0 0.18,0.25 q 0.22,0.07 0.28,-0.03 l -0.65,12.82 q -0.03,0.66 0.63,0.65 l 11.37,-0.03 q 1.34,-0.01 1.34,1.33 l -0.05,11.91 q 0,0.22 0.22,0.22 l 13.5,-0.12 q -0.02,0.12 0.16,0.2 l -0.1,13.95 -39.65,0.03 q -0.53,0 -0.53,0.53 v 25.22 q 0,0.56 0.56,0.56 h 12.2 q 0.49,0 0.49,0.49 l -0.07,26.76 -13.2,-0.29 q -0.49,-0.01 -0.5,-0.51 l -0.04,-12.72 0.04,-12.31 a 1.43,1.43 0 0 0 -1.44,-1.43 l -10.65,0.09 a 1.31,1.3 89.3 0 1 -1.32,-1.3 l -0.01,-25.11 q 0,-0.52 -0.53,-0.52 l -12.49,0.03 q -0.49,0 -0.49,-0.5 v -12.25 a 0.69,0.68 0 0 0 -0.69,-0.68 L 68.43,148 a 1.15,1.15 0 0 1 -1.15,-1.15 l -0.04,-11.34 a 0.86,0.87 0 0 0 -0.86,-0.87 l -12.27,0.02 a 0.37,0.38 0 0 1 -0.37,-0.38 l 0.01,-53.02 q 0,-0.47 -0.47,-0.48 l -12.99,-0.14 0.13,-40.52 13.41,0.06 q 0.17,0 0.24,-0.15 z"
     id="path126" />
  <path
     fill="#070707"
     d="m 54.28,40.21 12.7,0.05 a 0.69,0.68 0.4 0 1 0.68,0.68 l 0.03,12.3 q 0,0.55 0.56,0.55 h 12.48 a 0.45,0.45 0 0 1 0.45,0.45 v 12.55 l -12.87,0.32 q -0.59,0.01 -0.59,-0.59 V 54.5 A 0.72,0.72 0 0 0 67.01,53.78 H 54.79 q -0.51,0 -0.51,-0.51 z"
     id="path128" />
  <path
     fill="#070707"
     d="m 108.13,93.5 q 0.01,0.14 -0.02,0.28 -0.07,0.27 -0.35,0.26 L 95.19,94.03 q -0.6,0 -0.6,-0.6 V 81.28 A 0.55,0.55 0 0 0 94.04,80.73 H 81.76 a 0.55,0.54 0 0 1 -0.55,-0.54 q 0.04,-6.45 0.02,-12.82 0,-0.1 0.09,-0.14 0.11,-0.04 0.23,-0.09 l 12.46,0.07 q 0.54,0.01 0.54,0.54 l 0.01,12.27 a 0.73,0.72 89.6 0 0 0.72,0.72 h 12.29 a 0.57,0.57 0 0 1 0.57,0.57 z"
     id="path130" />
  <path
     fill="#dddddd"
     d="m 40.29,80.64 12.99,0.14 q 0.47,0.01 0.47,0.48 l -0.01,53.02 a 0.37,0.38 0 0 0 0.37,0.38 l 12.27,-0.02 a 0.86,0.87 0 0 1 0.86,0.87 l 0.04,11.34 a 1.15,1.15 0 0 0 1.15,1.15 l 11.64,0.06 a 0.69,0.68 0 0 1 0.69,0.68 v 12.25 q 0,0.5 0.49,0.5 l 12.49,-0.03 q 0.53,0 0.53,0.52 l 0.01,25.11 a 1.31,1.3 89.3 0 0 1.32,1.3 l 10.65,-0.09 a 1.43,1.43 0 0 1 1.44,1.43 l -0.04,12.31 -13.08,0.32 -0.02,-13.6 A 0.35,0.35 0 0 0 94.2,188.42 L 81.67,188.4 q -0.49,0 -0.49,-0.49 l 0.01,-12.19 q 0,-0.71 -0.71,-0.71 H 68.02 q -0.74,0 -0.74,0.73 l 0.01,12.19 q 0,0.47 -0.47,0.47 l -12.25,0.01 a 0.78,0.78 0 0 0 -0.77,0.78 v 12.3 q 0,0.5 -0.5,0.5 l -13,0.01 z"
     id="path134" />
  <path
     fill="#070707"
     d="m 135.07,121.03 -13.1,0.01 q -0.06,0.1 -0.28,0.03 a 0.26,0.26 0 0 1 -0.18,-0.25 v -12.64 a 0.58,0.57 0.5 0 0 -0.57,-0.57 h -12.38 a 0.38,0.38 0 0 1 -0.38,-0.38 l 0.04,-13.12 12.68,0.04 q 0.6,0 0.6,0.61 l 0.01,12.18 q 0,0.7 0.69,0.7 h 12.05 q 0.82,0 0.82,0.82 z"
     id="path136" />
  <path
     fill="#dddddd"
     d="m 121.97,121.04 13.1,-0.01 q 0.05,0.01 0.1,0.02 l 0.06,12.92 q 0.01,0.53 0.54,0.53 l 12.2,0.01 a 0.37,0.37 0 0 1 0.37,0.37 l -0.01,12.94 -13.5,0.12 q -0.22,0 -0.22,-0.22 l 0.05,-11.91 q 0,-1.34 -1.34,-1.33 l -11.37,0.03 q -0.66,0.01 -0.63,-0.65 z"
     id="path142" />
  <path
     fill="#070707"
     d="m 135.17,121.05 12.7,0.1 q 0.53,0.01 0.53,0.54 l 0.02,12.28 q 0,0.56 0.56,0.56 h 12.3 a 0.75,0.75 0 0 1 0.75,0.75 v 12.74 h -13.54 q -0.18,-0.08 -0.16,-0.2 l 0.01,-12.94 a 0.37,0.37 0 0 0 -0.37,-0.37 l -12.2,-0.01 q -0.53,0 -0.54,-0.53 z"
     id="path144" />
  <path
     fill="#dddddd"
     d="m 148.49,148.02 h 13.54 q 0.02,0.01 0.05,0.01 l -0.13,13.38 q -0.01,0.51 -0.52,0.51 l -13.04,0.05 z"
     id="path146" />
  <path
     fill="#eeeeee"
     d="m 107.65,202.04 0.04,12.72 q 0.01,0.5 0.5,0.51 l 13.2,0.29 -0.2,12.81 q -0.01,0.63 -0.64,0.63 h -11.86 q -0.57,0 -0.57,-0.57 l 0.01,-12.34 a 0.78,0.77 0 0 0 -0.78,-0.77 l -12.3,-0.02 q -0.45,0 -0.45,-0.45 l -0.03,-12.49 z"
     id="path154" />
</svg>
